<svg width="26" height="36" viewBox="0 0 26 36" fill="none"
                                    xmlns="http://www.w3.org/2000/svg">
                                    <path
                                        d="M19.4282 8.14719H4.2927C3.43931 8.14719 2.74512 8.84146 2.74512 9.69477V26.3054C2.74512 27.1587 3.43938 27.853 4.2927 27.853H19.4282C20.2815 27.853 20.9757 27.1587 20.9757 26.3054V22.7743C20.9757 22.4831 20.7397 22.247 20.4484 22.247C20.1571 22.247 19.9211 22.4831 19.9211 22.7743V26.3054C19.9209 26.4361 19.8689 26.5614 19.7765 26.6538C19.6841 26.7462 19.5588 26.7981 19.4282 26.7983H4.2927C4.03788 26.7983 3.82765 26.6039 3.80234 26.3557C3.80065 26.3392 3.7998 16.5812 3.7998 16.5812H19.9211V20.2428C19.9211 20.534 20.1571 20.7701 20.4484 20.7701C20.7397 20.7701 20.9757 20.534 20.9757 20.2428V9.69477C20.9757 8.84146 20.2814 8.14719 19.4282 8.14719ZM3.7998 15.5265V12.9303H5.32924C5.41729 12.9303 5.50395 12.9083 5.58129 12.8662C5.65863 12.8241 5.72419 12.7633 5.772 12.6894L6.32965 11.8273L7.77197 14.2069C7.97679 14.5699 8.55567 14.5287 8.70748 14.1416L9.55235 12.1736L9.96959 12.7984C10.0177 12.8705 10.083 12.9297 10.1595 12.9706C10.236 13.0115 10.3214 13.0329 10.4081 13.0329H14.7785L15.9774 14.2261C16.291 14.5382 16.8011 14.5381 17.1147 14.2261L18.4531 12.8941C18.8595 12.4895 18.9738 11.8887 18.7444 11.3632C18.6104 11.0533 18.3651 10.8049 18.057 10.6669C17.7488 10.5289 17.4001 10.5114 17.0797 10.6178L16.5461 10.7929L16.0126 10.6178C15.6922 10.5113 15.3435 10.5288 15.0353 10.6668C14.7271 10.8048 14.4818 11.0532 14.3478 11.3631C14.2629 11.5567 14.2234 11.767 14.2324 11.9782H10.6901L9.88978 10.7795C9.6754 10.435 9.11473 10.4866 8.96665 10.8643L8.14266 12.7837L6.79512 10.5605C6.60963 10.2317 6.09558 10.2256 5.90138 10.5474L5.0423 11.8755H3.7998V9.69477C3.79995 9.56409 3.85193 9.43881 3.94433 9.34641C4.03674 9.254 4.16202 9.20203 4.2927 9.20188H19.4282C19.5588 9.20203 19.6841 9.254 19.7765 9.34641C19.8689 9.43881 19.9209 9.56409 19.9211 9.69477V15.5265H3.7998ZM15.3144 11.7854C15.3442 11.7167 15.3986 11.6616 15.467 11.631C15.5354 11.6004 15.6127 11.5965 15.6838 11.62L16.2947 11.8205C16.4594 11.8745 16.6332 11.8745 16.7974 11.8205L17.4086 11.62C17.4797 11.5964 17.557 11.6003 17.6254 11.6309C17.6937 11.6615 17.7481 11.7166 17.7779 11.7854C17.8044 11.8454 17.8121 11.9122 17.7998 11.9767C17.7875 12.0412 17.7559 12.1005 17.7091 12.1466L16.5461 13.304L15.4495 12.2127C15.3374 12.0956 15.2315 11.9559 15.3144 11.7854ZM13.0123 2.48169H10.7086C10.5687 2.48169 10.4346 2.53725 10.3357 2.63614C10.2368 2.73504 10.1812 2.86917 10.1812 3.00903C10.1812 3.14889 10.2368 3.28303 10.3357 3.38192C10.4346 3.48082 10.5687 3.53638 10.7086 3.53638H13.0122C13.3035 3.53638 13.5396 3.30027 13.5396 3.00903C13.5396 2.7178 13.3035 2.48169 13.0123 2.48169Z"
                                        fill="#3C72FC" />
                                    <path
                                        d="M8.24232 24.3816C7.5515 24.3979 6.96158 23.8925 6.86659 23.2118C6.84726 23.0732 6.77369 22.9481 6.66207 22.8638C6.55045 22.7795 6.40992 22.743 6.27139 22.7623C6.13287 22.7817 6.00769 22.8552 5.92341 22.9669C5.83912 23.0785 5.80263 23.219 5.82196 23.3575C5.98853 24.5509 7.01221 25.4366 8.2142 25.4365C8.23051 25.4365 8.24703 25.4364 8.26349 25.436C9.52293 25.4107 10.5605 24.4061 10.6258 23.1491C10.6605 22.4797 10.4259 21.8439 9.96533 21.3588C9.51118 20.8804 8.87275 20.6061 8.21385 20.6061C7.97197 20.6061 7.76975 20.6207 7.59025 20.6486L7.83543 19.1687H9.70743C9.84729 19.1687 9.98142 19.1132 10.0803 19.0143C10.1792 18.9154 10.2348 18.7813 10.2348 18.6414C10.2348 18.5015 10.1792 18.3674 10.0803 18.2685C9.98142 18.1696 9.84729 18.1141 9.70743 18.1141H7.38824C7.26332 18.1141 7.14246 18.1584 7.04719 18.2392C6.95192 18.32 6.88841 18.432 6.868 18.5552L6.40857 21.3282C6.32497 21.7729 6.85042 22.1033 7.22532 21.8573C7.48921 21.7386 7.70057 21.6608 8.21378 21.6608C8.5903 21.6608 8.94067 21.8114 9.2004 22.0849C9.45985 22.3583 9.59197 22.7168 9.57243 23.0944C9.53586 23.8019 8.95157 24.3673 8.24232 24.3816ZM15.7025 19.0588C15.9938 19.0588 16.2298 18.8227 16.2298 18.5315C16.2298 18.2403 15.9938 18.0042 15.7025 18.0042H13.001C12.7097 18.0042 12.4737 18.2403 12.4737 18.5315C12.4737 18.8227 12.7097 19.0588 13.001 19.0588H15.7025ZM18.4601 21.5056C18.4601 20.6791 17.7877 20.0067 16.9612 20.0067H13.9725C13.1461 20.0067 12.4737 20.6791 12.4737 21.5056C12.4737 22.332 13.1461 23.0044 13.9725 23.0044H16.9612C17.7877 23.0044 18.4601 22.332 18.4601 21.5056ZM13.5283 21.5056C13.5285 21.3878 13.5753 21.2749 13.6586 21.1917C13.7418 21.1084 13.8547 21.0616 13.9724 21.0614H16.9611C17.206 21.0614 17.4053 21.2607 17.4053 21.5056C17.4053 21.7505 17.206 21.9497 16.9611 21.9497H13.9724C13.8547 21.9496 13.7418 21.9027 13.6586 21.8195C13.5753 21.7362 13.5285 21.6233 13.5283 21.5056Z"
                                        fill="#3C72FC" />
                                    <path
                                        d="M23.6774 11.9782H23.0853V9.28238C23.0853 7.59677 21.7931 6.20775 20.1474 6.05271L19.2545 2.08153C18.9789 0.855914 17.9092 0 16.653 0H7.0679C5.81176 0 4.74196 0.855914 4.4664 2.08153L3.57351 6.05271C1.92777 6.20775 0.635498 7.59677 0.635498 9.28238V26.7176C0.635498 28.5067 2.09104 29.9622 3.88007 29.9622H19.063L18.2255 33.6871C18.0589 34.428 17.4123 34.9453 16.653 34.9453H7.0679C6.30859 34.9453 5.662 34.428 5.49543 33.6871L5.0834 31.8545C5.0682 31.7869 5.03985 31.723 4.99996 31.6664C4.96007 31.6098 4.90941 31.5616 4.85089 31.5246C4.79237 31.4875 4.72713 31.4624 4.65889 31.4506C4.59065 31.4388 4.52075 31.4405 4.45319 31.4557C4.31674 31.4864 4.19807 31.57 4.12328 31.6882C4.04849 31.8064 4.0237 31.9494 4.05437 32.0858L4.4664 33.9185C4.74196 35.1441 5.81169 36 7.0679 36H16.653C17.9092 36 18.9789 35.1441 19.2545 33.9185L20.1474 29.9473C21.7931 29.7922 23.0853 28.4032 23.0853 26.7176V18.4657H23.6774C24.6077 18.4657 25.3646 17.7088 25.3646 16.7785V13.6654C25.3646 12.7351 24.6078 11.9782 23.6774 11.9782ZM5.49543 2.31286C5.66193 1.57205 6.30859 1.05469 7.0679 1.05469H16.653C17.4123 1.05469 18.0589 1.57205 18.2255 2.31286L19.063 6.0378H4.65794L5.49543 2.31286ZM22.0306 26.7176C22.0306 27.9251 21.0482 28.9075 19.8407 28.9075H3.88014C2.67266 28.9075 1.69026 27.9251 1.69026 26.7176V9.28238C1.69026 8.0749 2.67266 7.09249 3.88014 7.09249H19.8408C21.0483 7.09249 22.0307 8.0749 22.0307 9.28238V26.7176H22.0306ZM24.3099 16.7785C24.3099 17.1272 24.0262 17.411 23.6774 17.411H23.0853V13.0328H23.6774C24.0262 13.0328 24.3099 13.3166 24.3099 13.6654V16.7785Z"
                                        fill="#3C72FC" />
                                    <path
                                        d="M13.001 25.4834C13.3181 25.4834 13.5752 25.2263 13.5752 24.9092C13.5752 24.5921 13.3181 24.335 13.001 24.335C12.6839 24.335 12.4268 24.5921 12.4268 24.9092C12.4268 25.2263 12.6839 25.4834 13.001 25.4834Z"
                                        fill="#3C72FC" />
                                    <path
                                        d="M15.4668 25.4834C15.784 25.4834 16.0411 25.2263 16.0411 24.9092C16.0411 24.5921 15.784 24.335 15.4668 24.335C15.1497 24.335 14.8926 24.5921 14.8926 24.9092C14.8926 25.2263 15.1497 25.4834 15.4668 25.4834Z"
                                        fill="#3C72FC" />
                                </svg>