  <svg width="36" height="36" viewBox="0 0 36 36" fill="none"
                                    xmlns="http://www.w3.org/2000/svg">
                                    <path
                                        d="M22.3329 3.58535L23.91 0.956761C23.9526 0.885641 23.9809 0.806813 23.9931 0.724776C24.0053 0.64274 24.0012 0.559103 23.9811 0.47864C23.961 0.398177 23.9252 0.322464 23.8758 0.255824C23.8265 0.189184 23.7644 0.132922 23.6933 0.0902496C23.6222 0.0475777 23.5434 0.0193317 23.4613 0.00712437C23.3793 -0.00508296 23.2957 -0.00101255 23.2152 0.0191032C23.1347 0.039219 23.059 0.0749861 22.9924 0.124362C22.9257 0.173739 22.8695 0.235758 22.8268 0.306877L21.1626 3.08072C20.1717 2.72831 19.1107 2.52621 18.0004 2.52621C16.8901 2.52621 15.829 2.72831 14.8381 3.08072L13.1739 0.306877C13.0878 0.163244 12.948 0.0597288 12.7855 0.0191032C12.623 -0.0215224 12.4511 0.00406979 12.3074 0.0902497C12.1638 0.17643 12.0603 0.316138 12.0196 0.47864C11.979 0.641142 12.0046 0.813128 12.0908 0.956761L13.6678 3.58535C10.6192 5.16111 8.52686 8.33789 8.52686 12.0004C8.52686 12.1679 8.59339 12.3285 8.71184 12.4469C8.83028 12.5654 8.99092 12.6319 9.15842 12.6319H26.8423C27.0098 12.6319 27.1705 12.5654 27.2889 12.4469C27.4074 12.3285 27.4739 12.1679 27.4739 12.0004C27.4733 8.33853 25.3815 5.16174 22.3329 3.58535ZM9.81399 11.3688C10.1374 7.13539 13.6855 3.78997 18.0004 3.78997C22.3152 3.78997 25.8634 7.13539 26.1868 11.3688H9.81399Z"
                                        fill="#3C72FC" />
                                    <path
                                        d="M22.4068 7.177H21.5744C21.464 7.177 21.3581 7.22085 21.2801 7.2989C21.202 7.37696 21.1582 7.48282 21.1582 7.5932V8.42561C21.1582 8.6555 21.3445 8.84181 21.5744 8.84181H22.4074C22.5178 8.84181 22.6237 8.79796 22.7017 8.71991C22.7798 8.64186 22.8236 8.536 22.8236 8.42561V7.5932C22.8234 7.48276 22.7795 7.3769 22.7013 7.29887C22.6231 7.22083 22.5172 7.177 22.4068 7.177ZM14.4257 7.177H13.5926C13.4822 7.177 13.3764 7.22085 13.2983 7.2989C13.2203 7.37696 13.1764 7.48282 13.1764 7.5932V8.42561C13.1764 8.6555 13.3627 8.84181 13.5926 8.84181H14.4257C14.536 8.84181 14.6419 8.79796 14.72 8.71991C14.798 8.64186 14.8419 8.536 14.8419 8.42561V7.5932C14.8419 7.48282 14.798 7.37696 14.72 7.2989C14.6419 7.22085 14.536 7.177 14.4257 7.177ZM26.8416 13.2634H9.15774C8.99024 13.2634 8.8296 13.33 8.71116 13.4484C8.59272 13.5668 8.52618 13.7275 8.52618 13.895V26.6343C8.52751 27.4433 8.8497 28.2188 9.42205 28.7905C9.9944 29.3623 10.7702 29.6837 11.5792 29.6842H12.3156V33.4774C12.3156 34.8681 13.4486 35.9999 14.8419 35.9999C16.2351 35.9999 17.3681 34.8681 17.3681 33.4774V29.6842H18.6313V33.4774C18.6313 34.8681 19.7643 35.9999 21.1575 35.9999C22.5508 35.9999 23.6838 34.8681 23.6838 33.4774V29.6842H24.4202C25.2293 29.6839 26.0051 29.3625 26.5775 28.7907C27.1499 28.2189 27.472 27.4434 27.4732 26.6343V13.895C27.4732 13.7275 27.4067 13.5668 27.2882 13.4484C27.1698 13.33 27.0091 13.2634 26.8416 13.2634ZM26.2101 26.6343C26.2092 27.1085 26.0203 27.5629 25.6847 27.8979C25.3491 28.2329 24.8944 28.4211 24.4202 28.421H23.0522C22.8847 28.421 22.7241 28.4876 22.6057 28.606C22.4872 28.7245 22.4207 28.8851 22.4207 29.0526V33.4774C22.4207 33.8124 22.2876 34.1337 22.0507 34.3706C21.8138 34.6074 21.4925 34.7405 21.1575 34.7405C20.8225 34.7405 20.5012 34.6074 20.2644 34.3706C20.0275 34.1337 19.8944 33.8124 19.8944 33.4774V29.0526C19.8944 28.8851 19.8279 28.7245 19.7094 28.606C19.591 28.4876 19.4303 28.421 19.2628 28.421H16.7366C16.5691 28.421 16.4084 28.4876 16.29 28.606C16.1715 28.7245 16.105 28.8851 16.105 29.0526V33.4774C16.105 33.8124 15.9719 34.1337 15.735 34.3706C15.4981 34.6074 15.1769 34.7405 14.8419 34.7405C14.5069 34.7405 14.1856 34.6074 13.9487 34.3706C13.7118 34.1337 13.5787 33.8124 13.5787 33.4774V29.0526C13.5787 28.8851 13.5122 28.7245 13.3937 28.606C13.2753 28.4876 13.1147 28.421 12.9472 28.421H11.5798C11.1056 28.4209 10.6509 28.2327 10.3153 27.8978C9.97962 27.5629 9.79048 27.1085 9.78931 26.6343V14.5266H26.2101V26.6343ZM30.3153 13.2634C29.0963 13.2634 28.1048 14.2562 28.1048 15.4764V24.3133C28.1048 25.5335 29.0963 26.5263 30.3153 26.5263C31.5342 26.5263 32.5258 25.5335 32.5258 24.3133V15.4764C32.5254 14.89 32.2925 14.3277 31.8781 13.9129C31.4637 13.498 30.9017 13.2644 30.3153 13.2634ZM31.2626 24.3133C31.2626 24.8369 30.8376 25.2632 30.3153 25.2632C29.793 25.2632 29.3679 24.8369 29.3679 24.3133V15.4764C29.3679 14.9529 29.793 14.5266 30.3153 14.5266C30.8376 14.5266 31.2626 14.9529 31.2626 15.4764V24.3133ZM5.68412 13.2634C4.46519 13.2634 3.47363 14.2562 3.47363 15.4764V24.3133C3.47363 25.5335 4.46519 26.5263 5.68412 26.5263C6.90305 26.5263 7.89461 25.5335 7.89461 24.3133V15.4764C7.89427 14.89 7.66136 14.3277 7.24696 13.9129C6.83255 13.498 6.27051 13.2644 5.68412 13.2634ZM6.63147 24.3133C6.63147 24.8369 6.20643 25.2632 5.68412 25.2632C5.16181 25.2632 4.73677 24.8369 4.73677 24.3133V15.4764C4.73677 14.9529 5.16181 14.5266 5.68412 14.5266C6.20643 14.5266 6.63147 14.9529 6.63147 15.4764V24.3133Z"
                                        fill="#3C72FC" />
                                </svg>