   <svg width="36" height="36" viewBox="0 0 36 36" fill="none"
                                    xmlns="http://www.w3.org/2000/svg">
                                    <g clip-path="url(#clip0_602_155)">
                                        <path
                                            d="M28.5331 13.0602H33.0025C33.0733 13.0611 33.1434 13.0478 33.209 13.0213C33.2746 12.9948 33.3343 12.9556 33.3846 12.9058C33.4348 12.8561 33.4748 12.7969 33.502 12.7316C33.5293 12.6664 33.5433 12.5964 33.5433 12.5256C33.5433 12.4549 33.5293 12.3849 33.502 12.3196C33.4748 12.2543 33.4348 12.1951 33.3846 12.1454C33.3343 12.0957 33.2746 12.0564 33.209 12.0299C33.1434 12.0034 33.0733 11.9902 33.0025 11.991H28.5331C28.2377 11.991 27.9985 12.2305 27.9985 12.5258C27.9985 12.8211 28.2377 13.0602 28.5331 13.0602ZM28.5331 14.9672H33.0025C33.0733 14.968 33.1434 14.9548 33.209 14.9283C33.2746 14.9018 33.3343 14.8625 33.3846 14.8128C33.4348 14.7631 33.4748 14.7039 33.502 14.6386C33.5293 14.5733 33.5433 14.5033 33.5433 14.4326C33.5433 14.3618 33.5293 14.2918 33.502 14.2265C33.4748 14.1613 33.4348 14.1021 33.3846 14.0523C33.3343 14.0026 33.2746 13.9634 33.209 13.9369C33.1434 13.9104 33.0733 13.8971 33.0025 13.8979H28.5331C28.4629 13.8979 28.3933 13.9117 28.3285 13.9386C28.2636 13.9655 28.2047 14.0048 28.155 14.0545C28.1054 14.1041 28.066 14.163 28.0392 14.2279C28.0123 14.2927 27.9985 14.3623 27.9985 14.4325C27.9985 14.5027 28.0123 14.5722 28.0391 14.6371C28.066 14.702 28.1054 14.7609 28.155 14.8106C28.2046 14.8602 28.2636 14.8996 28.3284 14.9265C28.3933 14.9534 28.4628 14.9672 28.5331 14.9672ZM28.5331 16.8741H33.0025C33.0733 16.8749 33.1434 16.8617 33.209 16.8352C33.2746 16.8087 33.3343 16.7695 33.3846 16.7197C33.4348 16.67 33.4748 16.6108 33.502 16.5455C33.5293 16.4803 33.5433 16.4102 33.5433 16.3395C33.5433 16.2688 33.5293 16.1988 33.502 16.1335C33.4748 16.0682 33.4348 16.009 33.3846 15.9593C33.3343 15.9096 33.2746 15.8703 33.209 15.8438C33.1434 15.8173 33.0733 15.8041 33.0025 15.8049H28.5331C28.4629 15.8049 28.3933 15.8187 28.3285 15.8455C28.2636 15.8724 28.2047 15.9118 28.155 15.9614C28.1054 16.011 28.066 16.07 28.0392 16.1348C28.0123 16.1997 27.9985 16.2692 27.9985 16.3394C27.9985 16.6346 28.2377 16.8741 28.5331 16.8741ZM30.7677 24.2292C30.1758 24.2292 29.6193 24.4599 29.2007 24.8785C28.3364 25.7427 28.3364 27.1485 29.2007 28.0129C29.6327 28.445 30.2002 28.6611 30.7679 28.6611C31.3354 28.6611 31.9028 28.445 32.3351 28.0129C32.7537 27.5943 32.9841 27.0377 32.9841 26.4457C32.9841 25.8535 32.7537 25.2971 32.3351 24.8785C31.9166 24.4599 31.3598 24.2292 30.7677 24.2292ZM29.9569 25.6347C30.0631 25.5278 30.1895 25.443 30.3287 25.3853C30.4679 25.3276 30.6172 25.2981 30.7679 25.2985C30.8849 25.2985 30.9989 25.3163 31.1077 25.3498L29.6729 26.7847C29.5517 26.3914 29.646 25.9453 29.9569 25.6347ZM31.579 27.2568C31.2681 27.5674 30.822 27.6616 30.429 27.5408L31.8635 26.106C31.8976 26.216 31.9149 26.3305 31.9149 26.4457C31.9149 26.752 31.7957 27.0401 31.579 27.2568ZM32.3351 19.7852C31.9166 19.3667 31.3598 19.1362 30.7679 19.1362C30.1758 19.1362 29.6193 19.3667 29.2007 19.7852C28.3366 20.6496 28.3366 22.0556 29.2007 22.9197C29.6327 23.3517 30.2002 23.5679 30.7679 23.5679C31.3354 23.5679 31.9031 23.3517 32.3351 22.9196C32.7537 22.5011 32.9841 21.9446 32.9841 21.3525C32.9841 20.7606 32.7537 20.2039 32.3351 19.7852ZM31.579 20.5414C31.6858 20.6477 31.7705 20.7741 31.8282 20.9133C31.8858 21.0525 31.9153 21.2018 31.9149 21.3525C31.9149 21.4695 31.8973 21.5837 31.8635 21.6922L30.4279 20.2566C30.538 20.2227 30.6525 20.2054 30.7677 20.2055C30.9184 20.205 31.0677 20.2345 31.207 20.2922C31.3462 20.3498 31.4727 20.4346 31.579 20.5414ZM29.9569 22.1638C29.646 21.8529 29.5517 21.4068 29.6728 21.0135L31.1068 22.4475C30.7133 22.5687 30.2675 22.4745 29.9569 22.1638Z"
                                            fill="#3C72FC" />
                                        <path
                                            d="M31.3294 6.27253H21.8985C21.8109 5.64497 21.5645 5.05016 21.1827 4.54446L24.8145 0.912619C24.8642 0.86299 24.9035 0.804071 24.9304 0.739226C24.9573 0.67438 24.9711 0.604879 24.9711 0.53469C24.9711 0.464501 24.9573 0.394999 24.9304 0.330154C24.9035 0.265308 24.8642 0.206389 24.8145 0.156761C24.7649 0.107068 24.706 0.067646 24.6411 0.0407487C24.5762 0.0138515 24.5067 6.90847e-06 24.4365 6.90847e-06C24.3662 6.90847e-06 24.2967 0.0138515 24.2318 0.0407487C24.167 0.067646 24.108 0.107068 24.0584 0.156761L20.4261 3.7891C19.0907 2.78694 17.2373 2.78694 15.9022 3.78889L12.2698 0.15655C12.1695 0.0563102 12.0335 0 11.8918 0C11.75 0 11.614 0.0563102 11.5137 0.15655C11.464 0.206173 11.4246 0.265102 11.3977 0.329968C11.3708 0.394834 11.357 0.464365 11.357 0.534584C11.357 0.604804 11.3708 0.674334 11.3977 0.7392C11.4246 0.804066 11.464 0.862996 11.5137 0.912619L15.1455 4.54446C14.7637 5.05022 14.5173 5.64499 14.4295 6.27253H4.6706C2.09506 6.27253 3.5159e-05 8.3677 3.5159e-05 10.9432V22.0572C3.5159e-05 22.3525 0.239238 22.5917 0.534761 22.5917C0.604959 22.5917 0.674474 22.5779 0.739332 22.551C0.804191 22.5242 0.863123 22.4848 0.912761 22.4352C0.962399 22.3855 1.00177 22.3266 1.02863 22.2617C1.05548 22.1969 1.06929 22.1274 1.06928 22.0572V10.9432C1.06928 8.95741 2.68484 7.34184 4.6706 7.34184H31.3297C33.3152 7.34184 34.9307 8.95741 34.9307 10.9432V14.5008C34.9307 14.7961 35.1699 15.0353 35.4654 15.0353C35.5356 15.0353 35.6052 15.0215 35.67 14.9946C35.7349 14.9678 35.7938 14.9284 35.8434 14.8788C35.8931 14.8291 35.9325 14.7702 35.9593 14.7053C35.9862 14.6405 36 14.571 36 14.5008V10.9432C36 8.36763 33.9049 6.27253 31.3294 6.27253ZM16.2532 4.89581C17.3071 3.84225 19.0214 3.84225 20.0751 4.89609C20.4579 5.2781 20.7114 5.75461 20.8147 6.27267H15.5135C15.6166 5.75468 15.8702 5.2781 16.2532 4.89581ZM35.4652 16.1048C35.3234 16.1048 35.1875 16.1612 35.0872 16.2615C34.987 16.3617 34.9307 16.4977 34.9307 16.6395V28.5871C34.9307 30.5726 33.3152 32.1882 31.3294 32.1882H4.6706C2.68484 32.1882 1.06928 30.5726 1.06928 28.5871V24.1959C1.07009 24.1252 1.05686 24.055 1.03035 23.9894C1.00385 23.9239 0.9646 23.8642 0.914875 23.8139C0.86515 23.7636 0.80594 23.7237 0.740674 23.6964C0.675408 23.6692 0.605383 23.6551 0.534655 23.6551C0.463927 23.6551 0.393902 23.6692 0.328636 23.6964C0.26337 23.7237 0.20416 23.7636 0.154435 23.8139C0.104711 23.8642 0.0654601 23.9239 0.0389567 23.9894C0.0124534 24.055 -0.000775918 24.1252 3.5159e-05 24.1959V28.5871C3.5159e-05 31.1623 2.09513 33.2574 4.6706 33.2574H6.24602L6.48192 34.1267C6.73188 35.0468 7.57233 35.6895 8.5259 35.6895C9.47948 35.6895 10.32 35.0469 10.57 34.1267L10.8059 33.2574H25.1941L25.43 34.1267C25.68 35.0468 26.5207 35.6895 27.474 35.6895C28.4277 35.6895 29.2681 35.0469 29.518 34.1267L29.754 33.2574H31.3297C33.9049 33.2574 36 31.1623 36 28.5871V16.6395C36 16.3443 35.7608 16.1048 35.4652 16.1048ZM9.53805 33.8462C9.41423 34.3018 8.99805 34.6202 8.52597 34.6202C8.05382 34.6202 7.63772 34.3019 7.51382 33.8462L7.354 33.2574H9.69794L9.53805 33.8462ZM28.4862 33.8462C28.3623 34.3018 27.9462 34.6202 27.474 34.6202C27.0019 34.6202 26.5858 34.3019 26.4622 33.8462L26.3023 33.2574H28.646L28.4862 33.8462Z"
                                            fill="#3C72FC" />
                                        <path
                                            d="M8.09721 30.1764C10.3632 30.4112 12.6399 30.5287 14.9181 30.5285C17.1969 30.5285 19.4763 30.4112 21.7392 30.1764C23.0383 30.0412 24.2682 29.4631 25.2021 28.5479C26.1362 27.6325 26.7388 26.4147 26.8995 25.1185C27.3389 21.5631 27.3389 17.9672 26.8995 14.4118C26.7388 13.1157 26.1362 11.8979 25.2021 10.9824C24.2682 10.0673 23.0383 9.4891 21.7392 9.35396C17.204 8.88429 12.6324 8.88429 8.09721 9.35396C6.79811 9.48882 5.56814 10.0673 4.63432 10.9824C3.70021 11.8979 3.09728 13.1157 2.93697 14.4118C2.49725 17.9672 2.49725 21.5632 2.93697 25.1185C3.09728 26.4147 3.70021 27.6325 4.63432 28.5479C5.56814 29.4631 6.79783 30.0412 8.09721 30.1764ZM3.9982 14.5431C4.27066 12.343 6.00154 10.6465 8.2076 10.4174C12.6694 9.95518 17.167 9.95518 21.6288 10.4174C23.8348 10.6465 25.5658 12.3431 25.8382 14.5431C26.267 18.0112 26.267 21.5189 25.8382 24.987C25.5658 27.187 23.8348 28.8835 21.6288 29.1126C17.167 29.5749 12.6694 29.5749 8.2076 29.1126C6.00154 28.8835 4.27066 27.1872 3.9982 24.987C3.56918 21.5189 3.56918 18.0112 3.9982 14.5431Z"
                                            fill="#3C72FC" />
                                    </g>
                                    <defs>
                                        <clipPath>
                                            <rect width="36" height="36" fill="white" />
                                        </clipPath>
                                    </defs>
                                </svg>