 <svg width="36" height="36" viewBox="0 0 36 36" fill="none"
                                    xmlns="http://www.w3.org/2000/svg">
                                    <path
                                        d="M17.9999 10.2061C15.6829 10.2061 13.7979 12.0901 13.7979 14.406C13.7979 16.722 15.6828 18.606 17.9999 18.606C20.317 18.606 22.202 16.7219 22.202 14.406C22.202 12.0901 20.317 10.2061 17.9999 10.2061ZM17.9999 17.4061C16.3446 17.4061 14.9979 16.0601 14.9979 14.406C14.9979 12.7519 16.3446 11.406 17.9999 11.406C19.6552 11.406 21.002 12.7519 21.002 14.406C21.002 16.0601 19.6552 17.4061 17.9999 17.4061Z"
                                        fill="#3C72FC" />
                                    <path
                                        d="M25.1903 18.0102C25.192 17.882 25.2001 17.7544 25.2001 17.626C25.2001 10.7685 22.7292 4.40667 18.4208 0.171803C18.3084 0.0616816 18.1574 0 18 0C17.8427 0 17.6917 0.0616816 17.5793 0.171803C13.2709 4.40667 10.8 10.7685 10.8 17.626C10.8 17.7544 10.8081 17.882 10.8098 18.0102C7.91877 19.5144 6 23.5346 6 28.1996C6 28.3587 6.06321 28.5113 6.17573 28.6238C6.28825 28.7364 6.44085 28.7996 6.59998 28.7996H13.5941C13.5948 28.7996 13.5954 28.7999 13.5961 28.7999H13.9297L12.6759 30.8884C12.6212 30.9795 12.5917 31.0834 12.5904 31.1896C12.589 31.2958 12.6159 31.4005 12.6683 31.4928C12.7206 31.5852 12.7965 31.6621 12.8882 31.7156C12.9799 31.7691 13.0842 31.7972 13.1904 31.7972H22.7925C22.8986 31.7972 23.0029 31.7691 23.0946 31.7156C23.1863 31.6621 23.2622 31.5852 23.3145 31.4928C23.3669 31.4005 23.3938 31.2958 23.3925 31.1896C23.3911 31.0834 23.3616 30.9795 23.3069 30.8884L22.053 28.7999H22.404C22.4047 28.7999 22.4053 28.7996 22.406 28.7996H29.4001C29.5592 28.7996 29.7118 28.7364 29.8243 28.6238C29.9369 28.5113 30.0001 28.3587 30.0001 28.1996C30.0001 23.5347 28.0814 19.5144 25.1903 18.0102ZM18.0001 1.45473C19.2677 2.78406 20.3501 4.32033 21.2367 6.00572H14.7634C15.6501 4.32026 16.7325 2.78399 18.0001 1.45473ZM7.21177 27.5996C7.35472 23.9749 8.78488 20.794 10.8614 19.374C11.0423 22.2454 11.6673 25.0445 12.6977 27.5996H7.21177ZM14.2504 30.5973L15.3293 28.7999H20.6533L21.7325 30.5973H14.2504ZM22.0117 27.5999H13.9884C12.6868 24.5589 12.0001 21.1194 12.0001 17.626C12.0001 13.8965 12.767 10.3296 14.1786 7.20568H21.8216C23.2332 10.3296 24.0001 13.8965 24.0001 17.626C24.0001 21.1195 23.3134 24.5589 22.0117 27.5999ZM23.3024 27.5996C24.3329 25.0445 24.9579 22.2454 25.1387 19.374C27.2153 20.794 28.6454 23.9749 28.7884 27.5996H23.3024ZM18.0001 32.4005C17.9213 32.4005 17.8433 32.416 17.7705 32.4462C17.6977 32.4763 17.6315 32.5205 17.5758 32.5762C17.5201 32.632 17.4759 32.6981 17.4458 32.7709C17.4156 32.8437 17.4001 32.9217 17.4001 33.0005V35.3999C17.4001 35.559 17.4633 35.7116 17.5758 35.8242C17.6883 35.9367 17.8409 35.9999 18.0001 35.9999C18.1592 35.9999 18.3118 35.9367 18.4243 35.8242C18.5368 35.7116 18.6001 35.559 18.6001 35.3999V33.0006C18.6001 32.9218 18.5845 32.8437 18.5544 32.7709C18.5243 32.6981 18.4801 32.632 18.4243 32.5763C18.3686 32.5205 18.3025 32.4763 18.2297 32.4462C18.1569 32.416 18.0789 32.4005 18.0001 32.4005ZM14.9969 32.4005C14.9181 32.4005 14.8401 32.416 14.7673 32.4462C14.6945 32.4763 14.6283 32.5205 14.5726 32.5762C14.5169 32.632 14.4727 32.6981 14.4426 32.7709C14.4124 32.8437 14.3969 32.9217 14.3969 33.0005V34.1993C14.3969 34.3584 14.4601 34.5111 14.5726 34.6236C14.6851 34.7361 14.8377 34.7993 14.9969 34.7993C15.156 34.7993 15.3086 34.7361 15.4211 34.6236C15.5336 34.5111 15.5969 34.3584 15.5969 34.1993V33.0005C15.5968 32.8414 15.5336 32.6888 15.4211 32.5763C15.3086 32.4637 15.156 32.4005 14.9969 32.4005ZM21.0033 32.4005C20.9246 32.4005 20.8465 32.416 20.7737 32.4462C20.7009 32.4763 20.6348 32.5205 20.5791 32.5762C20.5234 32.632 20.4792 32.6981 20.449 32.7709C20.4189 32.8437 20.4034 32.9217 20.4034 33.0005V34.1993C20.4034 34.3584 20.4666 34.5111 20.5791 34.6236C20.6916 34.7361 20.8442 34.7993 21.0033 34.7993C21.1625 34.7993 21.3151 34.7361 21.4276 34.6236C21.5401 34.5111 21.6033 34.3584 21.6033 34.1993V33.0005C21.6033 32.8414 21.5401 32.6888 21.4276 32.5763C21.3151 32.4637 21.1625 32.4005 21.0033 32.4005Z"
                                        fill="#3C72FC" />
                                </svg>